<?xml version="1.0" encoding="utf-8"?>
<!-- Generator: Adobe Illustrator 21.0.0, SVG Export Plug-In . SVG Version: 6.00 Build 0)  -->
<svg version="1.1" id="图层_1" xmlns="http://www.w3.org/2000/svg" xmlns:xlink="http://www.w3.org/1999/xlink" x="0px" y="0px"
	 viewBox="0 0 200 200" style="enable-background:new 0 0 200 200;" xml:space="preserve">
<style type="text/css">
	.st0{fill:#333333;}
	.st1{fill:#333333;stroke:#333333;stroke-width:5;stroke-miterlimit:10;}
</style>
<path class="st0" d="M99.5,157.3l-33.7-33.7c-8.8-8.9-13.7-20.7-13.7-33.3c0-6.3,1.2-12.5,3.7-18.3c2.4-5.6,5.7-10.6,10-15l0.5-0.5
	c9-8.8,20.8-13.7,33.3-13.7c12.6,0,24.4,4.9,33.3,13.7l0.5,0.5c8.8,9,13.7,20.8,13.7,33.3c0,12.6-4.9,24.5-13.7,33.3l-0.4,0.4
	L99.5,157.3L99.5,157.3z M70.4,61.5c-7.6,7.7-11.8,17.9-11.8,28.7c0,10.8,4.2,21,11.8,28.7L99.5,148l29.1-29.1
	c7.6-7.7,11.8-17.9,11.8-28.7c0-10.8-4.2-21-11.8-28.7l-0.4-0.4c-7.7-7.6-17.9-11.8-28.7-11.8c-10.8,0-21,4.2-28.7,11.8L70.4,61.5
	L70.4,61.5z M99.5,106c-10.3,0-18.7-8.4-18.7-18.7c0-4.1,1.4-8.2,3.8-11.3c3.6-4.7,9-7.3,14.9-7.3c10.3,0,18.7,8.4,18.7,18.7
	C118.2,97.7,109.8,106,99.5,106z M99.5,75.2c-3.8,0-7.4,1.8-9.7,4.8l0,0c-1.6,2-2.5,4.6-2.5,7.3c0,6.7,5.5,12.2,12.2,12.2
	c6.7,0,12.2-5.4,12.2-12.1C111.7,80.6,106.2,75.2,99.5,75.2z"/>
<path class="st1" d="M100,186.8c-47.6,0-86.3-38.7-86.3-86.2c0-47.6,38.7-86.3,86.3-86.3s86.3,38.7,86.3,86.3S147.6,186.8,100,186.8
	z M100,17.4c-45.9,0-83.3,37.3-83.3,83.3c0,45.9,37.3,83.2,83.3,83.2s83.3-37.3,83.3-83.2C183.3,54.7,145.9,17.4,100,17.4z"/>
</svg>
