<?xml version="1.0" encoding="utf-8"?>
<!-- Generator: Adobe Illustrator 21.0.0, SVG Export Plug-In . SVG Version: 6.00 Build 0)  -->
<svg version="1.1" id="图层_1" xmlns="http://www.w3.org/2000/svg" xmlns:xlink="http://www.w3.org/1999/xlink" x="0px" y="0px"
	 viewBox="0 0 200 200" style="enable-background:new 0 0 200 200;" xml:space="preserve">
<style type="text/css">
	.st0{fill:#333333;}
	.st1{fill:#333333;stroke:#333333;stroke-width:5;stroke-miterlimit:10;}
</style>
<path class="st0" d="M58,114.9l-17.6,17.6c-1.5,1.5-1.5,3.9,0,5.3c1.5,1.5,3.9,1.5,5.3,0l17.6-17.6c1.5-1.5,1.5-3.9,0-5.3
	C61.9,113.4,59.5,113.4,58,114.9z"/>
<path class="st0" d="M154.6,56.9L143.5,68c-0.2,0.2-0.3,0.4-0.4,0.6l-38,38c-2.9,2.9-7.7,2.9-10.7,0L46.9,59.1v0l-1.3-1.3
	c-1.5-1.5-3.9-1.5-5.3,0c-1.5,1.5-1.5,3.9,0,5.3L51,73.8c0,0,0,0,0,0l38.1,38.1c5.9,5.9,15.5,5.9,21.4,0L148.4,74
	c0.2-0.1,0.5-0.2,0.7-0.4l11.1-11.1c1.5-1.5,1.5-4,0-5.6C158.7,55.4,156.2,55.4,154.6,56.9z"/>
<path class="st0" d="M140.6,113.7c-1.5-1.5-4-1.5-5.6,0c-1.5,1.5-1.5,4,0,5.6l18.5,18.5c1.5,1.5,4,1.5,5.6,0c1.5-1.5,1.5-4,0-5.6
	L140.6,113.7z"/>
<path class="st1" d="M100,186.8c-47.6,0-86.3-38.7-86.3-86.2c0-47.6,38.7-86.3,86.3-86.3s86.3,38.7,86.3,86.3S147.6,186.8,100,186.8
	z M100,17.4c-45.9,0-83.3,37.3-83.3,83.3c0,45.9,37.3,83.2,83.3,83.2s83.3-37.3,83.3-83.2C183.3,54.7,145.9,17.4,100,17.4z"/>
</svg>
