<?xml version="1.0" encoding="utf-8"?>
<!-- Generator: Adobe Illustrator 21.0.0, SVG Export Plug-In . SVG Version: 6.00 Build 0)  -->
<svg version="1.1" id="图层_1" xmlns="http://www.w3.org/2000/svg" xmlns:xlink="http://www.w3.org/1999/xlink" x="0px" y="0px"
	 viewBox="0 0 200 200" style="enable-background:new 0 0 200 200;" xml:space="preserve">
<style type="text/css">
	.st0{fill:#333333;stroke:#333333;stroke-width:5;stroke-miterlimit:10;}
	.st1{fill:#333333;}
</style>
<path d="M90.1,72.3h15.7c2.1,0,3.8-1.7,3.8-3.7c0-2.1-1.7-3.7-3.8-3.7H90.1c-2.1,0-3.8,1.7-3.8,3.7C86.3,70.6,88,72.3,90.1,72.3
	L90.1,72.3L90.1,72.3z"/>
<path d="M89.7,161.1c0-4.5,3.7-8.2,8.3-8.2c4.6,0,8.4,3.7,8.4,8.2c0,4.5-3.7,8.2-8.4,8.2C93.4,169.3,89.7,165.6,89.7,161.1
	L89.7,161.1L89.7,161.1z"/>
<path d="M99.9,134.3"/>
<path class="st0" d="M100,186.8c-47.6,0-86.3-38.7-86.3-86.2c0-47.6,38.7-86.3,86.3-86.3s86.3,38.7,86.3,86.3S147.6,186.8,100,186.8
	z M100,17.4c-45.9,0-83.3,37.3-83.3,83.3c0,45.9,37.3,83.2,83.3,83.2s83.3-37.3,83.3-83.2C183.3,54.7,145.9,17.4,100,17.4z"/>
<path class="st1" d="M48.9,48.2c-2.2,0-3.9,1.8-3.9,3.9c0,2.2,1.8,3.9,3.9,3.9l97.2,0c2.2,0,3.9-1.8,3.9-3.9c0-2.2-1.8-3.9-3.9-3.9
	L48.9,48.2z"/>
<path class="st1" d="M44.9,167.4c0,2.2,1.8,3.9,3.9,3.9c2.2,0,3.9-1.8,3.9-3.9l0-115.2c0-2.2-1.8-3.9-3.9-3.9
	c-2.2,0-3.9,1.8-3.9,3.9L44.9,167.4z"/>
<path class="st1" d="M143.1,169.4c0,2.2,1.8,3.9,3.9,3.9c2.2,0,3.9-1.8,3.9-3.9l0-117.2c0-2.2-1.8-3.9-3.9-3.9
	c-2.2,0-3.9,1.8-3.9,3.9L143.1,169.4z"/>
</svg>
