<?xml version="1.0" encoding="utf-8"?>
<!-- Generator: Adobe Illustrator 21.0.0, SVG Export Plug-In . SVG Version: 6.00 Build 0)  -->
<svg version="1.1" id="图层_1" xmlns="http://www.w3.org/2000/svg" xmlns:xlink="http://www.w3.org/1999/xlink" x="0px" y="0px"
	 viewBox="0 0 200 200" style="enable-background:new 0 0 200 200;" xml:space="preserve">
<style type="text/css">
	.st0{fill:#333333;}
	.st1{fill:#333333;stroke:#333333;stroke-width:5;stroke-miterlimit:10;}
</style>
<path class="st0" d="M108.4,96.7c9-4,15.4-13,15.6-24.4c0-0.3,0-0.5,0.3-0.8l11.9-24.1c0.5-1.3-0.3-2.6-1.6-2.6H97
	c-15.9,0-28.3,13.5-27,29.7c0.8,9.8,7.2,18,15.6,22c-20.4,5-35.5,23.3-35.5,45c0,2.1,1.6,4,4,4c2.4,0,4-1.9,4-4
	c0-21.2,17.2-38.4,38.4-38.4s38.4,17.2,38.4,38.4c0,2.1,1.9,4,4,4s4-1.9,4-4C142.8,120,128.2,102,108.4,96.7L108.4,96.7z M77.9,73.7
	c-0.5-5.6,1.3-10.6,5-14.6c3.4-4,8.7-6.4,14-6.4h27.5l-7.4,15.4c-0.5,1.3-1.1,2.6-1.1,4.2c0,10.6-7.4,18.3-18,18.8H97
	C87.2,91.2,78.7,83.5,77.9,73.7z"/>
<path class="st1" d="M100,186.8c-47.6,0-86.3-38.7-86.3-86.2c0-47.6,38.7-86.3,86.3-86.3s86.3,38.7,86.3,86.3S147.6,186.8,100,186.8
	z M100,17.4c-45.9,0-83.3,37.3-83.3,83.3c0,45.9,37.3,83.2,83.3,83.2s83.3-37.3,83.3-83.2C183.3,54.7,145.9,17.4,100,17.4z"/>
</svg>
