<?xml version="1.0" encoding="utf-8"?>
<!-- Generator: Adobe Illustrator 21.0.0, SVG Export Plug-In . SVG Version: 6.00 Build 0)  -->
<svg version="1.1" id="图层_1" xmlns="http://www.w3.org/2000/svg" xmlns:xlink="http://www.w3.org/1999/xlink" x="0px" y="0px"
	 viewBox="0 0 200 200" style="enable-background:new 0 0 200 200;" xml:space="preserve">
<style type="text/css">
	.st0{fill:#333333;stroke:#000000;stroke-width:5;stroke-miterlimit:10;}
</style>
<path class="st0" d="M100,186.8c-47.6,0-86.3-38.7-86.3-86.2c0-47.6,38.7-86.3,86.3-86.3s86.3,38.7,86.3,86.3S147.6,186.8,100,186.8
	z M100,17.4c-45.9,0-83.3,37.3-83.3,83.3c0,45.9,37.3,83.2,83.3,83.2s83.3-37.3,83.3-83.2C183.3,54.7,145.9,17.4,100,17.4z"/>
<g>
	<path d="M83.6,111.4l11.1,1.2c-0.7,6.7-3.3,12.2-7.7,16.5c-4.4,4.3-10.3,6.5-17.5,6.5c-6.1,0-11-1.5-14.8-4.6
		c-3.8-3.1-6.7-7.2-8.8-12.5c-2.1-5.2-3.1-11-3.1-17.3c0-10.2,2.4-18.4,7.2-24.8s11.4-9.5,19.9-9.5c6.6,0,12.1,2,16.5,6.1
		s7.2,9.9,8.3,17.5l-11.1,1.2C81.5,81.5,77,76.5,70,76.5c-4.5,0-8,2.1-10.5,6.3C57,87,55.8,93,55.8,101c0,8.1,1.3,14.2,4,18.3
		c2.7,4.1,6.2,6.2,10.6,6.2c3.5,0,6.5-1.4,9-4.2C81.9,118.5,83.3,115.2,83.6,111.4z"/>
	<path d="M154.6,134.5h-11.7l-25.3-42.6c-0.4-0.7-1-1.7-1.9-3.2c-0.4-0.7-1-1.7-1.8-3.1v48.8h-9.7V67.9h13.3l23.3,39.3
		c0.2,0.3,1.6,2.7,4.2,7.2V67.9h9.5v66.6H154.6z"/>
</g>
</svg>
