<?xml version="1.0" encoding="utf-8"?>
<!-- Generator: Adobe Illustrator 21.0.0, SVG Export Plug-In . SVG Version: 6.00 Build 0)  -->
<svg version="1.1" id="图层_1" xmlns="http://www.w3.org/2000/svg" xmlns:xlink="http://www.w3.org/1999/xlink" x="0px" y="0px"
	 viewBox="0 0 200 200" style="enable-background:new 0 0 200 200;" xml:space="preserve">
<style type="text/css">
	.st0{fill:#333333;stroke:#000000;stroke-width:5;stroke-miterlimit:10;}
	.st1{fill:#333333;}
</style>
<path class="st0" d="M100,186.8c-47.6,0-86.3-38.7-86.3-86.2c0-47.6,38.7-86.3,86.3-86.3s86.3,38.7,86.3,86.3S147.6,186.8,100,186.8
	z M100,17.4c-45.9,0-83.3,37.3-83.3,83.3c0,45.9,37.3,83.2,83.3,83.2s83.3-37.3,83.3-83.2C183.3,54.7,145.9,17.4,100,17.4z"/>
<g>
	<path class="st1" d="M93.6,134.5H50.3V67.9h42.9v9.9H62.3v18.1h24.8v9.7H62.3v18.7h31.3V134.5z"/>
	<path class="st1" d="M154.3,134.5h-11.7l-25.3-42.6c-0.4-0.7-1-1.7-1.9-3.2c-0.4-0.7-1-1.7-1.8-3.1v48.8H104V67.9h13.3l23.3,39.3
		c0.2,0.3,1.6,2.7,4.2,7.2V67.9h9.5V134.5z"/>
</g>
</svg>
