<?xml version="1.0" standalone="no"?><!DOCTYPE svg PUBLIC "-//W3C//DTD SVG 1.1//EN" "http://www.w3.org/Graphics/SVG/1.1/DTD/svg11.dtd"><svg t="1541056853530" class="icon" style="" viewBox="0 0 1024 1024" version="1.1" xmlns="http://www.w3.org/2000/svg" p-id="1890" xmlns:xlink="http://www.w3.org/1999/xlink" width="200" height="200"><defs><style type="text/css"></style></defs><path d="M346 666.6h-52.2V377h118.6c33.8 0 58.9 8.5 75.2 25.6 16.3 17 24.5 37.2 24.5 60.4 0 26.5-8.8 47.9-26.5 64.3s-40.1 24.6-67.3 24.6H346v114.7z m0-159.6h61.7c16.1 0 28.4-4 36.9-11.9s12.7-18.5 12.7-31.6c0-11.9-3.9-22.1-11.8-30.6s-22-12.7-42.5-12.7h-57V507zM503.6 617.4l45.4-8.7c6.9 17.4 22.2 26.1 45.8 26.1 30 0 45-8.8 45-26.5 0-5.7-2.3-10.3-7-14-4.7-3.7-10.2-6.2-16.5-7.4l-39-7.4c-43.3-8.3-64.9-29.5-64.9-63.4 0-19 6.9-35 20.6-48.3 13.7-13.2 34.2-19.8 61.3-19.8 45.3 0 72.9 16.6 83 49.9l-43.1 8.7c-4.5-16.1-17.4-24.2-38.6-24.2-25.7 0-38.6 8.1-38.6 24.2 0 11.2 10.4 18.9 31.2 23.1l46 9.5c35.8 7.4 53.7 27.9 53.7 61.5 0 23.6-9.2 41.3-27.6 52.9-18.4 11.7-40.2 17.5-65.6 17.5-21.9 0-41.3-4.4-58.1-13.3-17-8.8-27.9-22.3-33-40.4zM754.7 611v55.6h-52.4V611h52.4z" fill="#333333" p-id="1891"></path><path d="M903.9 119.2c-31.3-31.3-72.7-48.5-116.6-48.5h-519c-49.7 0-96.3 22.3-128 61.2-11.4 8-21.6 17.3-30.5 27.6-11.2 12.6-20.1 26.4-26.7 41.3-9 20.3-13.5 42.6-13.5 66.3V790.4c0 43.7 17.3 84.4 48.6 114.6 31 29.8 72.4 46.3 116.5 46.3h518.6c3.2 0.3 6.4 0.5 9.6 0.5 19.9 0 39.3-6.3 55.1-13.6 15.6-6.6 30.2-15.7 43.2-27 9-7.4 16.4-14.8 20.8-21.4 44.1-31.1 70.4-81.4 70.4-135v-519c0-43.9-17.3-85.3-48.5-116.6z m-0.2 666.9c0 33.9-11.8 67.1-33.1 93.7-6.3 7.9-13.3 15-20.9 21.3-10 7.9-22.6 16.1-36.3 22.6-18.6 8.2-38.9 12.5-59.8 12.5h-519c-82.8 0-150.1-67.3-150.1-150.1v-519c0-37.1 13.9-72.5 38.2-99.7 7.8-8.5 16.8-16.5 27-23.9 25.1-17.4 54.5-26.5 84.9-26.5h519c82.8 0 150.1 67.3 150.1 150.1v519z m33.7-31.3c0 32-10.4 62.8-28.9 88.2 6.7-18.1 10.2-37.4 10.2-56.9v-519c0-43.9-17.2-85.3-48.5-116.6C839 119.2 797.6 102 753.6 102h-519c-15.6 0-30.9 2.2-45.6 6.4 23.5-14.7 50.8-22.7 79.2-22.7h519c82.8 0 150.1 67.3 150.1 150.1v519z" fill="#333333" p-id="1892"></path></svg>