<?xml version="1.0" encoding="utf-8"?>
<!-- Generator: Adobe Illustrator 21.0.0, SVG Export Plug-In . SVG Version: 6.00 Build 0)  -->
<svg version="1.1" id="图层_1" xmlns="http://www.w3.org/2000/svg" xmlns:xlink="http://www.w3.org/1999/xlink" x="0px" y="0px"
	 viewBox="0 0 200 200" style="enable-background:new 0 0 200 200;" xml:space="preserve">
<style type="text/css">
	.st0{fill:none;}
	.st1{fill:#333333;}
</style>
<g>
	<path class="st0" d="M147.2,22.9H45.8c-5.9,0-11.7,1.8-16.6,5.2c-2,1.4-3.8,3-5.3,4.7c-4.7,5.3-7.5,12.2-7.5,19.5v101.4
		c0,16.2,13.1,29.3,29.3,29.3h101.4c4.1,0,8-0.8,11.7-2.4c2.7-1.3,5.1-2.9,7.1-4.4c1.5-1.2,2.9-2.6,4.1-4.2
		c4.2-5.2,6.5-11.7,6.5-18.3V52.2C176.5,36,163.4,22.9,147.2,22.9z M90.9,126.3c-4.2,3.2-9.6,4.8-16.3,4.8c-5.6,0-10.5-1.2-14.7-3.5
		c-4.2-2.4-7-6-8.4-11l9.9-2.1c1.2,5.6,5.7,8.4,13.7,8.4c3.6,0,6.4-0.7,8.4-2.1c2-1.4,2.9-3.2,2.9-5.4c0-1.5-0.4-3-1.3-4.3
		c-0.9-1.3-2.8-2.3-5.7-3.1l-10.8-2.8c-3.7-1-6.4-2.1-8.2-3.3c-1.8-1.2-3.2-3-4.2-5.2c-1.1-2.2-1.6-4.6-1.6-7.2
		c0-5.1,1.9-9.1,5.6-12.2c3.8-3,8.6-4.6,14.4-4.6c4.9,0,9.2,1.1,13,3.2s6.3,5.1,7.3,9l-9.7,2.4c-1.5-4.3-5-6.4-10.4-6.4
		c-3.2,0-5.6,0.7-7.3,2c-1.7,1.3-2.5,3-2.5,5.1c0,3.2,2.6,5.5,7.9,6.8l9.6,2.4c5.8,1.5,9.7,3.6,11.7,6.5c2,2.9,3,6,3,9.5
		C97.1,118.7,95,123.1,90.9,126.3z M121.4,130.2L121.4,130.2h-11V82.4h-15v-8.7h41v8.8h-15V130.2z M149.2,116.7h-3.1l-0.6,3.2h3.1
		l-0.5,3H145l-1.1,6.1h-2.9l1.1-6.1h-3.3l-1.1,6.1h-2.9l1.1-6.2h-3.2l0.5-2.9h3.2l0.6-3.2h-3.2l0.5-3h3.2l1-5.7h2.9l-1,5.7h3.3
		l1-5.7h2.9l-1,5.7h3.1L149.2,116.7z"/>
	<polygon class="st0" points="139.4,119.9 142.7,119.9 143.2,116.7 139.9,116.7 	"/>
	<path class="st0" d="M183.1,46.1c0-16.2-13.1-29.3-29.3-29.3H52.4c-5.5,0-10.9,1.6-15.5,4.4c2.9-0.8,5.9-1.3,8.9-1.3h101.4
		c8.6,0,16.7,3.4,22.8,9.5c6.1,6.1,9.5,14.2,9.5,22.8v101.4c0,3.8-0.7,7.6-2,11.1c3.6-5,5.6-11,5.6-17.2h0V46.1z"/>
	<path class="st1" d="M82.4,97.2l-9.6-2.4c-5.3-1.3-7.9-3.6-7.9-6.8c0-2.1,0.8-3.7,2.5-5.1c1.7-1.3,4.1-2,7.3-2
		c5.5,0,9,2.1,10.4,6.4l9.7-2.4c-1-3.9-3.5-6.9-7.3-9s-8.2-3.2-13-3.2c-5.9,0-10.7,1.5-14.4,4.6c-3.8,3.1-5.6,7.1-5.6,12.2
		c0,2.5,0.5,4.9,1.6,7.2c1.1,2.2,2.5,4,4.2,5.2c1.8,1.2,4.5,2.3,8.2,3.3l10.8,2.8c2.9,0.7,4.8,1.8,5.7,3.1c0.9,1.3,1.3,2.8,1.3,4.3
		c0,2.1-1,3.9-2.9,5.4c-2,1.4-4.7,2.1-8.4,2.1c-7.9,0-12.5-2.8-13.7-8.4l-9.9,2.1c1.4,5,4.2,8.6,8.4,11c4.2,2.3,9.1,3.5,14.7,3.5
		c6.7,0,12.1-1.6,16.3-4.8c4.2-3.2,6.3-7.6,6.3-13.1c0-3.5-1-6.6-3-9.5C92.2,100.8,88.2,98.7,82.4,97.2z"/>
	<polygon class="st1" points="136.4,73.6 95.4,73.6 95.4,82.4 110.4,82.4 110.4,130.2 121.4,130.2 121.4,130.2 121.4,82.4 
		136.4,82.4 	"/>
	<path class="st1" d="M176.5,23.3c-6.1-6.1-14.2-9.5-22.8-9.5H52.4c-9.7,0-18.8,4.4-25,12c-2.2,1.6-4.2,3.4-6,5.4
		c-2.2,2.5-3.9,5.2-5.2,8.1c-1.8,4-2.6,8.3-2.6,12.9v102.2c0,8.5,3.4,16.5,9.5,22.4c6.1,5.8,14.1,9,22.8,9h101.3
		c0.6,0.1,1.3,0.1,1.9,0.1c3.9,0,7.7-1.2,10.8-2.7c3-1.3,5.9-3.1,8.4-5.3c1.8-1.4,3.2-2.9,4.1-4.2c8.6-6.1,13.8-15.9,13.8-26.4V46.1
		C186,37.5,182.6,29.4,176.5,23.3z M176.5,153.5c0,6.6-2.3,13.1-6.5,18.3c-1.2,1.5-2.6,2.9-4.1,4.2c-2,1.5-4.4,3.1-7.1,4.4
		c-3.6,1.6-7.6,2.4-11.7,2.4H45.8c-16.2,0-29.3-13.1-29.3-29.3V52.2c0-7.2,2.7-14.2,7.5-19.5c1.5-1.7,3.3-3.2,5.3-4.7
		c4.9-3.4,10.6-5.2,16.6-5.2h101.4c16.2,0,29.3,13.1,29.3,29.3V153.5z M177.4,164.6c1.3-3.5,2-7.3,2-11.1V52.2
		c0-8.6-3.4-16.7-9.5-22.8c-6.1-6.1-14.2-9.5-22.8-9.5H45.8c-3,0-6,0.4-8.9,1.3c4.6-2.9,9.9-4.4,15.5-4.4h101.4
		c16.2,0,29.3,13.1,29.3,29.3v101.4h0C183.1,153.7,181.1,159.7,177.4,164.6z"/>
	<path class="st1" d="M147.6,109.1h-2.9l-1,5.7h-3.3l1-5.7h-2.9l-1,5.7h-3.2l-0.5,3h3.2l-0.6,3.2h-3.2l-0.5,2.9h3.2l-1.1,6.2h2.9
		l1.1-6.1h3.3l-1.1,6.1h2.9l1.1-6.1h3.1l0.5-3h-3.1l0.6-3.2h3.1l0.5-3h-3.1L147.6,109.1z M142.7,120.9h-3.3l0.6-3.2h3.3L142.7,120.9
		z"/>
</g>
</svg>
