<?xml version="1.0" encoding="utf-8"?>
<!-- Generator: Adobe Illustrator 21.0.0, SVG Export Plug-In . SVG Version: 6.00 Build 0)  -->
<svg version="1.1" id="图层_1" xmlns="http://www.w3.org/2000/svg" xmlns:xlink="http://www.w3.org/1999/xlink" x="0px" y="0px"
	 viewBox="0 0 200 200" style="enable-background:new 0 0 200 200;" xml:space="preserve">
<style type="text/css">
	.st0{fill:#333333;}
</style>
<path class="st0" d="M101.2,73.6l-12.5,56.6h-8.9l-9.3-41.6l-8.5,41.6h-8.7L40.4,73.6h9l9.1,41.2l8.5-41.2h8.5l9.3,41.2l8.9-41.2
	C93.7,73.6,101.2,73.6,101.2,73.6z M98.1,116.6l8.2-2.1c1,5.6,4.8,8.4,11.3,8.4c3,0,5.3-0.7,6.9-2.1c1.6-1.4,2.4-3.2,2.4-5.4
	c0-1.5-0.4-3-1.1-4.3c-0.7-1.3-2.3-2.3-4.7-3.1l-9-2.8c-3.1-1-5.3-2.1-6.8-3.3c-1.5-1.2-2.6-3-3.5-5.2c-0.9-2.2-1.3-4.6-1.3-7.2
	c0-5.1,1.6-9.1,4.7-12.2c3.1-3,7.1-4.6,11.9-4.6c4,0,7.6,1.1,10.8,3.2c3.2,2.1,5.2,5.1,6.1,9l-8,2.4c-1.2-4.3-4.1-6.4-8.7-6.4
	c-2.6,0-4.6,0.7-6,2c-1.4,1.3-2.1,3-2.1,5.1c0,3.2,2.2,5.5,6.5,6.8l8,2.4c4.8,1.5,8.1,3.6,9.7,6.5c1.7,2.9,2.5,6,2.5,9.5
	c0,5.5-1.7,9.9-5.2,13.1c-3.5,3.2-8,4.8-13.5,4.8c-4.6,0-8.7-1.2-12.2-3.5C101.6,125.2,99.3,121.5,98.1,116.6L98.1,116.6z"/>
<path class="st0" d="M176.5,23.3c-6.1-6.1-14.2-9.5-22.8-9.5H52.4c-9.7,0-18.8,4.4-25,12c-2.2,1.6-4.2,3.4-6,5.4
	c-2.2,2.5-3.9,5.2-5.2,8.1c-1.8,4-2.6,8.3-2.6,12.9v102.2c0,8.5,3.4,16.5,9.5,22.4c6.1,5.8,14.1,9,22.8,9h101.3
	c0.6,0.1,1.3,0.1,1.9,0.1c3.9,0,7.7-1.2,10.8-2.7c3-1.3,5.9-3.1,8.4-5.3c1.8-1.4,3.2-2.9,4.1-4.2c8.6-6.1,13.8-15.9,13.8-26.4V46.1
	C186,37.5,182.6,29.4,176.5,23.3z M176.5,153.5c0,6.6-2.3,13.1-6.5,18.3c-1.2,1.5-2.6,2.9-4.1,4.2c-2,1.5-4.4,3.1-7.1,4.4
	c-3.6,1.6-7.6,2.4-11.7,2.4H45.8c-16.2,0-29.3-13.1-29.3-29.3V52.2c0-7.2,2.7-14.2,7.5-19.5c1.5-1.7,3.3-3.2,5.3-4.7
	c4.9-3.4,10.6-5.2,16.6-5.2h101.4c16.2,0,29.3,13.1,29.3,29.3L176.5,153.5L176.5,153.5z M183.1,147.4c0,6.3-2,12.3-5.6,17.2
	c1.3-3.5,2-7.3,2-11.1V52.2c0-8.6-3.4-16.7-9.5-22.8c-6.1-6.1-14.2-9.5-22.8-9.5H45.8c-3,0-6,0.4-8.9,1.3c4.6-2.9,9.9-4.4,15.5-4.4
	h101.4c16.2,0,29.3,13.1,29.3,29.3L183.1,147.4L183.1,147.4z"/>
<path class="st0" d="M156.6,110.1h-2.9l-1,5.7h-3.3l1-5.7h-2.9l-1,5.7h-3.2l-0.5,3h3.2l-0.6,3.2h-3.2l-0.5,2.9h3.2l-1.1,6.2h2.9
	l1.1-6.1h3.3l-1.1,6.1h2.9l1.1-6.1h3.1l0.5-3h-3.1l0.6-3.2h3.1l0.5-3h-3.1L156.6,110.1z M151.6,122h-3.3l0.6-3.2h3.3L151.6,122z"/>
</svg>
