<?xml version="1.0" encoding="utf-8"?>
<!-- Generator: Adobe Illustrator 21.0.0, SVG Export Plug-In . SVG Version: 6.00 Build 0)  -->
<svg version="1.1" id="图层_1" xmlns="http://www.w3.org/2000/svg" xmlns:xlink="http://www.w3.org/1999/xlink" x="0px" y="0px"
	 viewBox="0 0 200 200" style="enable-background:new 0 0 200 200;" xml:space="preserve">
<style type="text/css">
	.st0{fill:none;}
	.st1{fill:#333333;}
</style>
<g>
	<path class="st0" d="M147.2,22.9H45.8c-5.9,0-11.7,1.8-16.6,5.2c-2,1.4-3.8,3-5.3,4.7c-4.7,5.3-7.5,12.2-7.5,19.5v101.4
		c0,16.2,13.1,29.3,29.3,29.3h101.4c4.1,0,8-0.8,11.7-2.4c2.7-1.3,5.1-2.9,7.1-4.4c1.5-1.2,2.9-2.6,4.1-4.2
		c4.2-5.2,6.5-11.7,6.5-18.3V52.2C176.5,36,163.4,22.9,147.2,22.9z M99,130.2l-4.5-13.4H72.9l-4.4,13.4h-8.7l18.7-56.3H91l18.9,56.3
		H99z M121.3,130.2h-9.4v-29.6h9.4V130.2z M121.3,93.7h-9.4v-9.8h9.4V93.7z M137.9,130.2h-10.2v-10.8h10.2V130.2z"/>
	<polygon class="st0" points="75.4,108.7 91.8,108.7 83.6,83.5 	"/>
	<path class="st0" d="M183.1,46.1c0-16.2-13.1-29.3-29.3-29.3H52.4c-5.5,0-10.9,1.6-15.5,4.4c2.9-0.8,5.9-1.3,8.9-1.3h101.4
		c8.6,0,16.7,3.4,22.8,9.5c6.1,6.1,9.5,14.2,9.5,22.8v101.4c0,3.8-0.7,7.6-2,11.1c3.6-5,5.6-11,5.6-17.2h0V46.1z"/>
	<path class="st1" d="M176.5,23.3c-6.1-6.1-14.2-9.5-22.8-9.5H52.4c-9.7,0-18.8,4.4-25,12c-2.2,1.6-4.2,3.4-6,5.4
		c-2.2,2.5-3.9,5.2-5.2,8.1c-1.8,4-2.6,8.3-2.6,12.9v102.2c0,8.5,3.4,16.5,9.5,22.4c6.1,5.8,14.1,9,22.8,9h101.3
		c0.6,0.1,1.3,0.1,1.9,0.1c3.9,0,7.7-1.2,10.8-2.7c3-1.3,5.9-3.1,8.4-5.3c1.8-1.4,3.2-2.9,4.1-4.2c8.6-6.1,13.8-15.9,13.8-26.4V46.1
		C186,37.5,182.6,29.4,176.5,23.3z M176.5,153.5c0,6.6-2.3,13.1-6.5,18.3c-1.2,1.5-2.6,2.9-4.1,4.2c-2,1.5-4.4,3.1-7.1,4.4
		c-3.6,1.6-7.6,2.4-11.7,2.4H45.8c-16.2,0-29.3-13.1-29.3-29.3V52.2c0-7.2,2.7-14.2,7.5-19.5c1.5-1.7,3.3-3.2,5.3-4.7
		c4.9-3.4,10.6-5.2,16.6-5.2h101.4c16.2,0,29.3,13.1,29.3,29.3V153.5z M177.4,164.6c1.3-3.5,2-7.3,2-11.1V52.2
		c0-8.6-3.4-16.7-9.5-22.8c-6.1-6.1-14.2-9.5-22.8-9.5H45.8c-3,0-6,0.4-8.9,1.3c4.6-2.9,9.9-4.4,15.5-4.4h101.4
		c16.2,0,29.3,13.1,29.3,29.3v101.4h0C183.1,153.7,181.1,159.7,177.4,164.6z"/>
	<path class="st1" d="M78.5,73.9l-18.7,56.3h8.7l4.4-13.4h21.7l4.5,13.4h10.9L91,73.9H78.5z M75.4,108.7l8.2-25.1l8.2,25.1H75.4z"/>
	<rect x="111.8" y="83.9" class="st1" width="9.4" height="9.8"/>
	<rect x="111.8" y="100.6" class="st1" width="9.4" height="29.6"/>
	<rect x="127.8" y="119.4" class="st1" width="10.2" height="10.8"/>
</g>
</svg>
