<?xml version="1.0" encoding="utf-8"?>
<!-- Generator: Adobe Illustrator 21.0.0, SVG Export Plug-In . SVG Version: 6.00 Build 0)  -->
<svg version="1.1" id="图层_1" xmlns="http://www.w3.org/2000/svg" xmlns:xlink="http://www.w3.org/1999/xlink" x="0px" y="0px"
	 viewBox="0 0 200 200" style="enable-background:new 0 0 200 200;" xml:space="preserve">
<style type="text/css">
	.st0{fill:#333333;}
</style>
<path class="st0" d="M48.4,130.2V73.6h17c6.3,0,11.3,2.7,15.1,8.2c3.8,5.4,5.7,12.2,5.7,20.2s-2,14.7-5.9,20.1s-9.5,8.1-16.8,8.1
	H48.4L48.4,130.2z M55.9,121.9h7.8c4.2,0,7.7-1.7,10.6-5.1c2.9-3.4,4.3-8.5,4.3-15.3c0-5.5-1.3-10.2-3.8-14c-2.5-3.8-5.9-5.7-10-5.7
	h-8.9V121.9L55.9,121.9z M139,88.3l-11.2,41.9H120l-6.9-29.3l-6.8,29.3h-8L86.6,88.3h9.1l7.5,28.1l6.6-28.1h7.8l6.7,28.1l7.4-28.1
	H139L139,88.3z M151.6,109.1h-2.9l-1,5.7h-3.3l1-5.7h-2.9l-1,5.7h-3.2l-0.5,3h3.2l-0.6,3.2h-3.2l-0.5,2.9h3.2l-1.1,6.2h2.9l1.1-6.1
	h3.3l-1.1,6.1h2.9l1.1-6.1h3.1l0.5-3h-3.1l0.6-3.2h3.1l0.5-3h-3.1L151.6,109.1z M146.7,120.9h-3.3l0.6-3.2h3.3L146.7,120.9z"/>
<path class="st0" d="M176.5,23.3c-6.1-6.1-14.2-9.5-22.8-9.5H52.4c-9.7,0-18.8,4.4-25,12c-2.2,1.6-4.2,3.4-6,5.4
	c-2.2,2.5-3.9,5.2-5.2,8.1c-1.8,4-2.6,8.3-2.6,12.9v102.2c0,8.5,3.4,16.5,9.5,22.4c6.1,5.8,14.1,9,22.8,9h101.3
	c0.6,0.1,1.3,0.1,1.9,0.1c3.9,0,7.7-1.2,10.8-2.7c3-1.3,5.9-3.1,8.4-5.3c1.8-1.4,3.2-2.9,4.1-4.2c8.6-6.1,13.8-15.9,13.8-26.4V46.1
	C186,37.5,182.6,29.4,176.5,23.3z M176.5,153.5c0,6.6-2.3,13.1-6.5,18.3c-1.2,1.5-2.6,2.9-4.1,4.2c-2,1.5-4.4,3.1-7.1,4.4
	c-3.6,1.6-7.6,2.4-11.7,2.4H45.8c-16.2,0-29.3-13.1-29.3-29.3V52.2c0-7.2,2.7-14.2,7.5-19.5c1.5-1.7,3.3-3.2,5.3-4.7
	c4.9-3.4,10.6-5.2,16.6-5.2h101.4c16.2,0,29.3,13.1,29.3,29.3L176.5,153.5L176.5,153.5z M183.1,147.4c0,6.3-2,12.3-5.6,17.2
	c1.3-3.5,2-7.3,2-11.1V52.2c0-8.6-3.4-16.7-9.5-22.8c-6.1-6.1-14.2-9.5-22.8-9.5H45.8c-3,0-6,0.4-8.9,1.3c4.6-2.9,9.9-4.4,15.5-4.4
	h101.4c16.2,0,29.3,13.1,29.3,29.3L183.1,147.4L183.1,147.4z"/>
</svg>
