<?xml version="1.0" encoding="utf-8"?>
<!-- Generator: Adobe Illustrator 21.0.0, SVG Export Plug-In . SVG Version: 6.00 Build 0)  -->
<svg version="1.1" id="图层_1" xmlns="http://www.w3.org/2000/svg" xmlns:xlink="http://www.w3.org/1999/xlink" x="0px" y="0px"
	 viewBox="0 0 200 200" style="enable-background:new 0 0 200 200;" xml:space="preserve">
<style type="text/css">
	.st0{fill:#333333;}
</style>
<path class="st0" d="M94.7,130.2h-9.1L78.1,107H66v23.2h-8.6V73.6h20.8c5.8,0,10,1.5,12.7,4.6c2.7,3.1,4.1,7.1,4.1,12
	c0,7.3-2.9,12.3-8.6,15L94.7,130.2L94.7,130.2z M66,98.8h10.7c3.1,0,5.4-0.8,6.9-2.3s2.3-3.7,2.3-6.4c0-2.5-0.7-4.5-2.2-6
	s-3.6-2.3-6.3-2.3H66V98.8z M108.6,130.2h-8.6V73.6h19.6c5.6,0,9.7,1.7,12.4,5c2.7,3.3,4,7.3,4,11.8c0,5.2-1.5,9.4-4.4,12.6
	c-2.9,3.2-6.6,4.8-11.1,4.8h-12L108.6,130.2L108.6,130.2z M108.6,99h10.2c2.7,0,4.7-0.8,6.1-2.3c1.4-1.5,2.1-3.6,2.1-6.2
	c0-2.3-0.6-4.3-1.9-6s-3.6-2.5-7-2.5h-9.4L108.6,99L108.6,99z"/>
<path class="st0" d="M176.5,23.3c-6.1-6.1-14.2-9.5-22.8-9.5H52.4c-9.7,0-18.8,4.4-25,12c-2.2,1.6-4.2,3.4-6,5.4
	c-2.2,2.5-3.9,5.2-5.2,8.1c-1.8,4-2.6,8.3-2.6,12.9v102.2c0,8.5,3.4,16.5,9.5,22.4c6.1,5.8,14.1,9,22.8,9h101.3
	c0.6,0.1,1.3,0.1,1.9,0.1c3.9,0,7.7-1.2,10.8-2.7c3-1.3,5.9-3.1,8.4-5.3c1.8-1.4,3.2-2.9,4.1-4.2c8.6-6.1,13.8-15.9,13.8-26.4V46.1
	C186,37.5,182.6,29.4,176.5,23.3z M176.5,153.5c0,6.6-2.3,13.1-6.5,18.3c-1.2,1.5-2.6,2.9-4.1,4.2c-2,1.5-4.4,3.1-7.1,4.4
	c-3.6,1.6-7.6,2.4-11.7,2.4H45.8c-16.2,0-29.3-13.1-29.3-29.3V52.2c0-7.2,2.7-14.2,7.5-19.5c1.5-1.7,3.3-3.2,5.3-4.7
	c4.9-3.4,10.6-5.2,16.6-5.2h101.4c16.2,0,29.3,13.1,29.3,29.3L176.5,153.5L176.5,153.5z M183.1,147.4c0,6.3-2,12.3-5.6,17.2
	c1.3-3.5,2-7.3,2-11.1V52.2c0-8.6-3.4-16.7-9.5-22.8c-6.1-6.1-14.2-9.5-22.8-9.5H45.8c-3,0-6,0.4-8.9,1.3c4.6-2.9,9.9-4.4,15.5-4.4
	h101.4c16.2,0,29.3,13.1,29.3,29.3L183.1,147.4L183.1,147.4z"/>
<rect x="137.2" y="120.3" class="st0" width="10.2" height="10.9"/>
</svg>
