<?xml version="1.0" encoding="utf-8"?>
<!-- Generator: Adobe Illustrator 21.0.0, SVG Export Plug-In . SVG Version: 6.00 Build 0)  -->
<svg version="1.1" id="图层_1" xmlns="http://www.w3.org/2000/svg" xmlns:xlink="http://www.w3.org/1999/xlink" x="0px" y="0px"
	 viewBox="0 0 200 200" style="enable-background:new 0 0 200 200;" xml:space="preserve">
<path d="M100,187.3c-47.9,0-86.8-38.9-86.8-86.7c0-47.9,38.9-86.8,86.8-86.8s86.8,38.9,86.8,86.8C186.8,148.4,147.9,187.3,100,187.3
	z M100,14.8c-47.3,0-85.8,38.5-85.8,85.8c0,47.3,38.5,85.7,85.8,85.7c47.3,0,85.8-38.4,85.8-85.7C185.8,53.3,147.3,14.8,100,14.8z"
	/>
<g>
	<path d="M121.8,75c-13.8,1.3-20.8,2-21.1,2c-2,4.4-4.1,8.5-6.4,12.2h38.5l4.1-6.2c0.7-1,1.4-1.5,1.9-1.5s1.7,0.7,3.4,2.1
		c1.8,1.4,3.5,3,5.3,4.7c1.8,1.8,2.6,2.9,2.6,3.4c0,0.6-0.6,0.9-1.9,0.9h-35.4c8.9,11,22.2,17.7,39.8,20v2.2
		c-3.4,0.1-5.8,0.4-7.3,1.1s-2.7,1.8-3.6,3.5c-0.3,0.6-0.7,0.9-1.2,0.9c-1,0-3.9-1.3-8.5-3.9c-4.7-2.6-8.9-5.8-12.8-9.7
		c-3.9-3.9-7.3-8.6-10.3-14.1H92c-4.7,6.9-10.7,12.9-17.9,17.9c1.6,0.3,3.3,0.4,5.2,0.4h29.3l3.6-4.3c1-1.2,1.9-1.8,2.5-1.8
		s1.2,0.2,1.5,0.5l4.1,4c2.3,2.3,3.5,3.5,3.7,3.7s0.3,0.4,0.3,0.7c0,0.4-0.6,0.7-1.9,0.7H80.5c-2,0-3.5,0.3-4.6,0.8l-2.1-4.5
		c-6.6,4.5-15.4,9.1-26.4,13.9l-1.1-2.3c17.3-9.1,29.4-19,36.3-29.7H57.9c-1.8,0-3.4,0.2-4.7,0.6l-2-4.5c1.5,0.4,3.4,0.5,5.5,0.5h28
		c2.1-3.5,3.8-7.2,5.3-11c-11.7,1.2-18,2.2-18.9,3c-0.4,0.3-0.8,0.4-1.1,0.4c-1.2,0-2.7-3.3-4.3-9.9c3.6-0.4,6.2-0.7,7.8-1.1
		c1.6-0.4,3-1,4.2-1.8s3.3-2.7,6.3-5.7c3-3,5.2-5.4,6.8-7.4c1.5-1.9,3.3-4.6,5.2-8c1.8,1,3.8,2.2,6.2,3.6c2.4,1.5,3.7,2.3,3.9,2.6
		c0.2,0.3,0.3,0.6,0.3,0.8c0,0.5-0.5,0.8-1.6,1c-1.1,0.1-2,0.4-2.7,0.7s-1.9,1.3-3.7,2.8c-5.7,4.9-11.7,9.3-17.8,13.3l39.3-0.7
		c-3.3-4.3-7.4-7.9-12.2-10.9l1.5-2.1c7.1,2.9,12.4,5.4,15.8,7.3c3.4,1.9,5.7,3.7,6.9,5.3c1.2,1.6,1.8,3.4,1.8,5.4s-0.5,3.8-1.4,5.4
		c-1,1.6-1.9,2.4-2.9,2.4s-1.8-0.4-2.4-1.3c-0.7-0.9-1.4-2.2-2.2-3.9C123.7,78,122.8,76.4,121.8,75z M126.5,141.7l4.6-5.5
		c0.6-0.7,1.1-1.1,1.5-1.1c0.8,0,2.9,1.4,6.3,4.3c3.4,2.9,5.1,4.6,5.1,5.2c0,0.4-0.8,0.5-2.4,0.5H62.9c-2,0-3.5,0.3-4.6,0.8
		l-2.2-4.8c1.5,0.4,3.4,0.5,5.5,0.5h64.9V141.7z M113.4,127.3l4.1-5.5c0.4-0.6,1-0.9,1.5-0.9c0.6,0,2.4,1.4,5.4,4.1s4.5,4.3,4.5,4.9
		s-0.8,0.8-2.3,0.8H78.5c-2,0-3.5,0.3-4.6,0.8l-2.2-4.7c1.5,0.4,3.4,0.5,5.5,0.5H113.4z"/>
</g>
</svg>
