<?xml version="1.0" encoding="utf-8"?>
<!-- Generator: Adobe Illustrator 21.0.0, SVG Export Plug-In . SVG Version: 6.00 Build 0)  -->
<svg version="1.1" id="图层_1" xmlns="http://www.w3.org/2000/svg" xmlns:xlink="http://www.w3.org/1999/xlink" x="0px" y="0px"
	 viewBox="0 0 200 200" style="enable-background:new 0 0 200 200;" xml:space="preserve">
<path d="M100,187.3c-47.9,0-86.8-38.9-86.8-86.7c0-47.9,38.9-86.8,86.8-86.8s86.8,38.9,86.8,86.8C186.8,148.4,147.9,187.3,100,187.3
	z M100,14.8c-47.3,0-85.8,38.5-85.8,85.8c0,47.3,38.5,85.7,85.8,85.7c47.3,0,85.8-38.4,85.8-85.7C185.8,53.3,147.3,14.8,100,14.8z"
	/>
<g>
	<path d="M69,60.1h10l3.7-4.5c0.5-0.7,1-1,1.4-1c0.7,0,2.4,1.3,4.9,3.8s3.8,4.1,3.8,4.6s-0.5,0.8-1.4,0.8H67.3v9.9h9.9l3.6-4.7
		c0.4-0.4,0.7-0.7,1-0.7c0.6,0,2.1,1.2,4.5,3.7s3.6,3.9,3.6,4.4s-0.5,0.7-1.5,0.7H67.3v9.8h9.1L80,82c0.4-0.6,0.8-0.9,1.2-0.9
		c0.8,0,2.4,1.2,4.7,3.6s3.5,4,3.5,4.8c0,0.4-0.5,0.5-1.4,0.5H67.3v11.8h15.2l3.4-5c0.5-0.7,1-1.1,1.4-1.1c0.9,0,2.7,1.2,5.5,3.7
		s4.2,4.1,4.2,4.8c0,0.4-0.7,0.7-2.1,0.7H71.4c2.3,1,3.7,1.7,4.1,1.9c0.4,0.2,0.6,0.5,0.6,0.9s-0.6,0.8-1.8,1
		c-1.7,0.5-6.3,6.7-13.9,18.7l19.1-2.8c-1.5-2.9-3.4-6-5.9-9.5l1.1-1.1c5.1,3.3,9.1,6.3,11.8,9c2.8,2.7,4.1,5.2,4.1,7.4
		s-0.4,4.2-1.3,5.9s-2.1,2.6-3.5,2.6c-0.7,0-1.2-0.2-1.6-0.7s-0.8-1.9-1.3-4.2s-1.2-4.5-2.1-6.6c-11.8,4-20.3,7.4-25.4,10.3
		c-0.4,0.2-0.8,0.3-1.2,0.3s-0.6-0.2-0.9-0.5c-0.3-0.3-0.8-1.5-1.6-3.4s-1.4-3.6-1.9-5c2.5-0.7,4.2-1.6,5.2-2.6s2.5-3.8,4.6-8.5
		c2.1-4.6,3.8-9,5-13.2H53.5c-2,0-3.5,0.3-4.6,0.8l-2-4.5c1.5,0.4,3.4,0.6,5.5,0.6h6.5V66c0-3.7-0.1-6.9-0.2-9.8
		C63.5,57.5,66.9,58.8,69,60.1z M108.1,83.5H95.7c-2,0-3.5,0.3-4.6,0.8l-2-4.5c1.5,0.4,3.4,0.6,5.5,0.6h13.5v-11h-8.8
		c-2,0-3.5,0.3-4.6,0.8l-2-4.5c1.5,0.4,3.4,0.5,5.5,0.5h9.9c0-7.7-0.1-12.9-0.2-15.7c8.7,2.1,13,3.6,13,4.7c0,0.7-1.4,1.6-4.3,2.9
		v8.1h9.5l2.8-4.5c0.5-0.8,1.1-1.2,1.7-1.2c0.6,0,2.4,1,5.2,3c2.9,2,4.3,3.3,4.3,4c0,0.6-1.2,1.7-3.7,3.2v9.6h1.5L142,75
		c0.3-0.4,0.6-0.5,1-0.5c0.7,0,2.3,1.2,4.9,3.7c2.6,2.5,3.9,4,3.9,4.5s-0.7,0.8-2.2,0.8h-13.3v5.7l0.2,6.8c0,0.8-0.1,1.4-0.4,1.8
		c-0.3,0.4-1.5,1-3.6,2c-2.2,1-3.5,1.4-4.1,1.4c-0.5,0-0.8-0.5-0.8-1.5v-2.3h-11v11.4h8.8l3.7-4.5c0.7-0.8,1.3-1.2,2-1.2
		s2.4,1.3,5.2,3.9s4.2,4.1,4.2,4.6s-0.7,0.8-2.2,0.8h-21.8v10.3h14.6l3.8-5.7c0.6-0.9,1.2-1.3,1.9-1.3c1,0,3.1,1.4,6.2,4.2
		c3.1,2.8,4.6,4.7,4.6,5.6c0,0.6-0.7,0.9-2.1,0.9h-29c0,5.3,0.1,10.2,0.2,14.6l0.1,4.7c0,0.5-0.2,0.9-0.5,1.3s-1.6,1-3.8,1.9
		c-2.2,0.9-3.6,1.4-4.1,1.4s-0.8-0.6-0.8-1.8l0.2-6c0.1-5.3,0.1-10.6,0.1-16.1H97.2c-2,0-3.5,0.3-4.6,0.8l-2-5
		c1.5,0.4,3.4,0.5,5.5,0.5h12v-10.3h-8.4c-2,0-3.5,0.3-4.6,0.8l-2-4.8c1.5,0.4,3.4,0.6,5.5,0.6h9.5V97.4h-9.7c-2,0-3.5,0.3-4.6,0.8
		l-2-4.5c1.5,0.4,3.4,0.5,5.5,0.5h10.8C108.1,94.2,108.1,83.5,108.1,83.5z M116.6,80.3h11V69.4h-11V80.3z M127.6,83.5h-11v10.7h11
		V83.5z"/>
</g>
</svg>
