<?xml version="1.0" encoding="utf-8"?>
<!-- Generator: Adobe Illustrator 21.0.0, SVG Export Plug-In . SVG Version: 6.00 Build 0)  -->
<svg version="1.1" id="图层_1" xmlns="http://www.w3.org/2000/svg" xmlns:xlink="http://www.w3.org/1999/xlink" x="0px" y="0px"
	 viewBox="0 0 200 200" style="enable-background:new 0 0 200 200;" xml:space="preserve">
<path d="M100,187.3c-47.9,0-86.8-38.9-86.8-86.7c0-47.9,38.9-86.8,86.8-86.8s86.8,38.9,86.8,86.8C186.8,148.4,147.9,187.3,100,187.3
	z M100,14.8c-47.3,0-85.8,38.5-85.8,85.8c0,47.3,38.5,85.7,85.8,85.7c47.3,0,85.8-38.4,85.8-85.7C185.8,53.3,147.3,14.8,100,14.8z"
	/>
<g>
	<path d="M65.7,83.6h69.9l2.8-4.1c0.6-0.9,1.2-1.3,1.9-1.3s2,0.9,4,2.6c2,1.8,3.8,3.2,5.4,4.5c1.6,1.2,2.4,2.2,2.4,3s-1,1.2-3.1,1.2
		s-4.1,0.7-6,2.2s-5.1,5-9.7,10.4l-1.5-1.8l4.5-13.5H66c0.3,5.3-0.6,9.3-2.6,12.1c-2.1,2.8-4.5,4.2-7.5,4.2c-1.8,0-3.1-0.5-4.1-1.4
		c-1-1-1.4-1.9-1.4-2.9s0.8-2,2.3-3.1c3.9-2.8,6.4-5.3,7.5-7.5s2-5.2,2.5-9l2.3,0.1C65.4,80.9,65.6,82.3,65.7,83.6z M85.7,141.7
		c-0.1-0.1-0.3-1-0.8-2.5c-1-4.3-2.7-7.8-5.1-10.8l1.3-1.6c5.3,2.3,8.6,3.9,10,4.9s2.1,2.3,2.1,3.9c0,2.8-1.1,4.8-3.4,6.2h16.4
		c2.7-6.1,5-11.8,6.8-17.2c2.6,1.2,4.9,2.5,7,3.8s3.3,2.2,3.5,2.5c0.2,0.4,0.3,0.7,0.3,0.9c0,0.7-0.7,1.2-2.1,1.3s-2.9,0.8-4.3,1.8
		c-1.4,1.1-3.5,3.3-6.2,6.8h22.3l4.8-6.3c0.6-0.7,1.1-1.1,1.5-1.1c0.7,0,2.8,1.5,6.3,4.4c3.4,2.9,5.2,4.7,5.2,5.4s-1,1-2.9,1H58.3
		c-2,0-3.5,0.3-4.6,0.8l-2.2-4.7c1.5,0.4,3.4,0.5,5.5,0.5L85.7,141.7L85.7,141.7z M95.9,64H64c-2,0-3.5,0.3-4.6,0.8l-2.2-4.5
		c1.5,0.4,3.4,0.6,5.5,0.6h33.2v-3.1c0-5.6-0.1-9.1-0.2-10.3c4.9,0.8,8.6,1.6,10.9,2.5c2.4,0.8,3.6,1.5,3.6,2c0,0.7-1.5,1.8-4.4,3.3
		v5.6h24.3l4.4-5.8c0.6-0.7,1.1-1.1,1.5-1.1s1.5,0.6,3.2,1.9c1.7,1.2,3.4,2.7,5.1,4.3c1.7,1.6,2.6,2.6,2.6,3.1
		c0,0.6-0.6,0.9-1.9,0.9h-39.3v9h14.6l4.4-5.2c0.7-0.7,1.3-1.1,1.8-1.1c0.6,0,2.3,1.3,5.2,3.9s4.4,4.2,4.4,4.8s-0.5,1-1.6,1H75.4
		c-2,0-3.5,0.3-4.6,0.8l-2-4.7c2.3,0.4,4.1,0.6,5.5,0.6H96L95.9,64L95.9,64z M117.3,94.8l3.6-4.5c0.5-0.6,1.1-0.9,1.7-0.9
		s2.3,1.1,5.1,3.2c2.8,2.2,4.1,3.6,4.1,4.2c0,0.7-0.6,1-1.8,1H75.1c-2,0-3.5,0.3-4.6,0.8l-2-4.4c1.3,0.4,3.2,0.5,5.5,0.5h43.3V94.8z
		 M82.6,105.7h35.6l2-3.8c0.4-0.9,0.9-1.3,1.7-1.3c0.7,0,2.1,0.6,4.1,1.7l5,2.8c1.2,0.7,1.9,1.3,1.9,1.8s-1.1,1.4-3.4,2.6v9
		c0,1.1,0,2.1,0.1,3.1l0.2,2.3c0,0.4-0.3,0.8-0.8,1.2c-0.5,0.4-1.8,0.8-3.8,1.4s-3.5,0.8-4.5,0.8c-0.4,0-0.6-0.3-0.7-0.8
		s-0.2-1.7-0.2-3.4H81.3c0,1,0,1.7-0.1,2.1c-0.1,0.5-0.2,0.8-0.3,1c-0.1,0.2-0.8,0.5-1.8,1c-1.1,0.5-2.3,0.9-3.8,1.2
		s-2.5,0.5-2.9,0.5s-0.6-0.4-0.5-1.1c0.4-2.5,0.5-5.2,0.5-8.3v-8.6c0-3.1-0.1-6.2-0.3-9.4C76.2,102.8,79.8,104.2,82.6,105.7z
		 M119.8,119.9v-11.2H81.3v11.2H119.8z"/>
</g>
</svg>
