<?xml version="1.0" encoding="utf-8"?>
<!-- Generator: Adobe Illustrator 21.0.0, SVG Export Plug-In . SVG Version: 6.00 Build 0)  -->
<svg version="1.1" id="图层_1" xmlns="http://www.w3.org/2000/svg" xmlns:xlink="http://www.w3.org/1999/xlink" x="0px" y="0px"
	 viewBox="0 0 200 200" style="enable-background:new 0 0 200 200;" xml:space="preserve">
<path d="M100,187.3c-47.9,0-86.8-38.9-86.8-86.7c0-47.9,38.9-86.8,86.8-86.8s86.8,38.9,86.8,86.8C186.8,148.4,147.9,187.3,100,187.3
	z M100,14.8c-47.3,0-85.8,38.5-85.8,85.8c0,47.3,38.5,85.7,85.8,85.7c47.3,0,85.8-38.4,85.8-85.7C185.8,53.3,147.3,14.8,100,14.8z"
	/>
<g>
	<path d="M65,87.2c-5.6,8.9-11.4,16.4-17.2,22.3l-1.4-1.3C59,89.8,67,69.5,70.6,47.4c7.4,2.5,11.5,4,12.4,4.5s1.3,1.2,1.3,2
		c0,0.9-0.7,1.4-2,1.6c-1.3,0.2-3,2.8-5.1,7.7s-4.6,10.3-7.7,16.1c5.8,1.5,8.7,2.8,8.7,4c0,0.7-1.3,1.7-4,3v61.4
		c0,0.7-0.2,1.2-0.5,1.5s-1.6,0.9-4,1.8c-2.3,0.8-3.9,1.3-4.7,1.3c-0.4,0-0.7-0.4-0.7-1.2l0.3-10.3c0.1-3.2,0.1-6.3,0.1-9.1V87.2H65
		z M103.3,63.2H88.9c-2,0-3.5,0.3-4.6,0.8l-1.9-4.7c1.5,0.4,3.4,0.5,5.5,0.5h42.9l4.6-6.5c0.5-0.7,1-1,1.4-1c0.9,0,2.9,1.6,6.1,4.7
		c3.2,3.1,4.8,5,4.8,5.7c0,0.4-0.8,0.5-2.3,0.5H113L108.9,91H123l3.2-4.6c0.5-0.7,1.1-1.1,1.7-1.1c0.6,0,2.1,0.9,4.5,2.6
		c2.3,1.8,4,3,5.1,3.7c1,0.7,1.5,1.5,1.5,2.3s-1.7,2-5.2,3.5l-2.2,41.4h3.8l4.7-5.7c0.8-1,1.5-1.4,2-1.4c0.6,0,2.3,1.5,5.3,4.6
		s4.5,4.9,4.5,5.4c0,0.6-0.6,0.8-1.9,0.8H81.4c-2,0-3.5,0.3-4.6,0.8l-2-5.1c1.5,0.4,3.4,0.5,5.5,0.5h12.5l6-44.3H86.2
		c-2,0-3.5,0.3-4.6,0.8l-2-4.8c1.5,0.4,3.4,0.5,5.5,0.5h14.2L103.3,63.2z M108.4,94.5l-6.3,44.3h19.4l2.9-44.3H108.4z"/>
</g>
</svg>
