<?xml version="1.0" encoding="utf-8"?>
<!-- Generator: Adobe Illustrator 21.0.0, SVG Export Plug-In . SVG Version: 6.00 Build 0)  -->
<svg version="1.1" id="图层_1" xmlns="http://www.w3.org/2000/svg" xmlns:xlink="http://www.w3.org/1999/xlink" x="0px" y="0px"
	 viewBox="0 0 200 200" style="enable-background:new 0 0 200 200;" xml:space="preserve">
<path d="M100,187.3c-47.9,0-86.8-38.9-86.8-86.7c0-47.9,38.9-86.8,86.8-86.8s86.8,38.9,86.8,86.8C186.8,148.4,147.9,187.3,100,187.3
	z M100,14.8c-47.3,0-85.8,38.5-85.8,85.8c0,47.3,38.5,85.7,85.8,85.7c47.3,0,85.8-38.4,85.8-85.7C185.8,53.3,147.3,14.8,100,14.8z"
	/>
<g>
	<path d="M108,69.8H55.1c-2,0-3.5,0.3-4.6,0.8l-2-4.4c1.5,0.4,3.4,0.5,5.5,0.5h54c0-5.6-0.3-11.3-0.9-16.8c3.8,0.7,6.9,1.5,9.3,2.4
		c2.4,0.8,3.6,1.4,3.6,1.8c0,0.5-1,1.2-3.1,2.1c-0.1,2.3-0.1,5.8-0.1,10.6h17.3l4.2-5.7c0.8-1.1,1.5-1.6,2-1.6s2.2,1.4,4.9,4.2
		c2.7,2.8,4.1,4.6,4.1,5.2c0,0.7-0.7,1-2.2,1h-30.3c0.2,11.2,0.9,21,2.1,29.2s2.9,15.1,5,20.6s4.7,9.7,7.6,12.7s4.8,4.5,5.6,4.5
		s1.4-0.3,1.8-1c0.4-0.7,1.1-2.2,2-4.7c1-2.5,2.1-6.8,3.5-12.9l2.2,0.6c-1.2,7.1-1.8,12.6-1.8,16.3c0,3.8,0.9,7.3,2.8,10.5
		c0.7,1.3,1.1,2.5,1.1,3.7c0,1.1-1,1.7-2.9,1.7s-5.3-1.1-10-3.3s-9.3-6-13.9-11.5s-8-14.6-10.4-27.3C109.4,96,108.2,83,108,69.8z
		 M76.2,105.3c3,0.5,5.6,1.1,7.8,1.8c2.2,0.7,3.3,1.3,3.3,1.7c0,0.4-0.3,0.8-1,1.2s-1.1,1.8-1.3,4.5c-0.6,8.7-1.4,14.7-2.5,18.2
		c-1.1,3.4-4.3,6.9-9.5,10.3c-5.2,3.4-13.1,6.6-23.6,9.5l-0.8-2.1c7-3.2,12.4-6.1,16.3-8.7c3.9-2.7,6.6-5.2,8-7.5s2.4-5.5,2.8-9.4
		C76.2,120.7,76.4,114.2,76.2,105.3z M94.1,88.3l3.3-4.3c0.5-0.7,1-1,1.5-1s1.2,0.5,2.1,1.4l3.3,3.3c1.2,1.3,1.9,2.3,1.9,2.8
		c0,0.6-0.7,0.8-2.2,0.8H61c-2,0-3.5,0.3-4.6,0.8l-2-4.4c1.5,0.4,3.4,0.5,5.5,0.5L94.1,88.3L94.1,88.3z M88.6,77.7l2.5-3.7
		c0.7-1,1.4-1.5,2.1-1.5s2.1,1.1,4.2,3.4c2.1,2.2,3.1,3.6,3.1,4.1s-0.7,0.8-2,0.8h-33c-2,0-3.5,0.3-4.6,0.8l-2-4.3
		c1.5,0.4,3.4,0.5,5.5,0.5h24.2V77.7z M69.1,98.2h23.6l1.4-2.4c0.5-0.9,1.1-1.3,1.8-1.3c0.7,0,2.5,0.9,5.6,2.8
		c3,1.9,4.5,3.1,4.5,3.7s-1.1,1.6-3.4,3v14.9c0,2.6,0.1,4.6,0.2,6c0.1,1.5,0.2,2.4,0.2,2.7s-0.3,0.6-0.8,0.9c-0.5,0.3-1.7,0.6-3.5,1
		s-3.3,0.6-4.5,0.6c-0.5,0-0.8-0.5-0.8-1.4v-27.1H68.9V128c0,0.8-0.1,1.4-0.2,1.8c-0.1,0.4-1.4,0.8-4,1.4c-2.5,0.6-4,0.9-4.3,0.9
		c-0.4,0-0.5-0.1-0.5-0.4c0-0.3,0.1-1.7,0.2-4.2c0.1-2.6,0.2-6.2,0.2-11V104c0-2.9-0.2-6.1-0.6-9.5C63.1,95.5,66.2,96.7,69.1,98.2z
		 M85.1,130.1c6.1,1.8,10.6,3.4,13.5,4.7s4.9,2.6,5.8,3.8s1.4,2.8,1.4,4.7s-0.4,3.6-1.2,5c-0.8,1.4-1.7,2.1-2.7,2.1
		s-2.2-1.1-3.6-3.4c-3.4-5.5-8.1-10.4-14.3-14.6L85.1,130.1z M121.2,51.5c9.3,1,14,3.3,14,6.7c0,1.7-0.4,3.2-1.2,4.5
		s-1.8,1.9-2.9,1.9c-0.8,0-1.6-0.7-2.3-2.2c-1.6-3.2-4.3-6.3-8-9.4L121.2,51.5z"/>
</g>
</svg>
