<?xml version="1.0" encoding="utf-8"?>
<!-- Generator: Adobe Illustrator 21.0.0, SVG Export Plug-In . SVG Version: 6.00 Build 0)  -->
<svg version="1.1" id="图层_1" xmlns="http://www.w3.org/2000/svg" xmlns:xlink="http://www.w3.org/1999/xlink" x="0px" y="0px"
	 viewBox="0 0 200 200" style="enable-background:new 0 0 200 200;" xml:space="preserve">
<style type="text/css">
	.st0{enable-background:new    ;}
</style>
<path d="M100,187.3c-47.9,0-86.8-38.9-86.8-86.7c0-47.9,38.9-86.8,86.8-86.8s86.8,38.9,86.8,86.8C186.8,148.4,147.9,187.3,100,187.3
	z M100,14.8c-47.3,0-85.8,38.5-85.8,85.8c0,47.3,38.5,85.7,85.8,85.7c47.3,0,85.8-38.4,85.8-85.7C185.8,53.3,147.3,14.8,100,14.8z"
	/>
<g class="st0">
	<path d="M68.6,59.6h10.2l2.6-3.9c0.4-0.7,0.9-1,1.4-1c0.5,0,1.9,0.7,4.1,2c2.2,1.4,3.9,2.4,4.9,3c1.1,0.7,1.7,1.3,1.7,1.9
		c0,0.6-0.7,1.1-2,1.5c-1.4,0.4-2.3,0.9-2.7,1.4c-0.4,0.5-2.5,3.7-6.1,9.7l-8.6,14.2c4.6,3.2,8,6.4,10.3,9.8
		c2.2,3.4,3.4,7.3,3.4,11.7c0,4.4-0.5,7.5-1.4,9.3c-1,1.8-2.7,3.4-5.2,4.8c-2.5,1.4-4.1,2.1-4.8,2.1c-0.7,0-1.2-0.7-1.5-2.2
		c-0.5-2.2-1.4-3.8-2.8-4.7c-1.4-0.9-3.2-1.7-5.7-2.4l0.3-2c2.1,0.3,4.2,0.4,6.3,0.4c2.1,0,3.6-0.6,4.7-1.8c1.1-1.2,1.6-3.3,1.6-6.4
		c0-3.1-0.8-6.4-2.3-9.7c-1.5-3.4-3.7-6.2-6.5-8.4c3.6-9.3,6.3-18.1,8-26.4H65.3v82c0,1-0.2,1.8-0.7,2.2c-0.5,0.4-1.8,1.1-3.8,2.1
		c-2.1,1-3.4,1.4-3.8,1.4s-0.7-0.6-0.7-1.8l0.1-4.3c0.1-2.9,0.2-6.1,0.2-9.7v-70c0-5.3-0.1-9.1-0.4-11.6
		C60.3,54.7,64.5,56.8,68.6,59.6z M133.7,138.2v-23.7c0-3.7-0.1-6.9-0.2-9.8c5.4,1.3,8.9,2.3,10.6,3c1.7,0.7,2.5,1.3,2.5,1.9
		c0,0.6-1.1,1.5-3.3,2.6v24.4l0.1,11.1c0,1-0.3,1.7-0.8,2.1c-0.5,0.5-1.9,1.1-4,2c-2.1,0.8-3.5,1.3-4.1,1.3c-0.5,0-0.8-0.5-0.8-1.4
		v-10h-32c-1.7,2.9-2.9,4.4-3.6,4.4c-0.7,0-2.2-0.6-4.5-1.7c-2.2-1.1-4.2-2.4-6-3.7c2.1-1.6,3.3-2.8,3.8-3.6
		c0.5-0.8,0.7-2.1,0.7-3.9v-20c0-3.7-0.1-6.9-0.2-9.8c4.1,0.7,7.2,1.4,9.3,2.1c2.1,0.7,3.1,1.3,3.1,1.8c0,0.6-1.2,1.3-3.6,2.2v28.7
		h12.1V99.6H92.2c-2,0-3.5,0.3-4.6,0.8l-2-4.8c1.5,0.4,3.4,0.5,5.5,0.5h21.7V76.6H94.9c-2.1,0-3.7,0.3-4.8,0.8l-2-4.7
		c1.5,0.4,3.4,0.5,5.5,0.5h19.1V61.7c0-5.4-0.1-9.2-0.4-11.5c4.8,1,8.3,1.9,10.6,2.5c2.3,0.7,3.4,1.2,3.4,1.7c0,0.7-1.5,1.9-4.5,3.6
		v15.2h10.5l4.1-5.9c0.7-1,1.3-1.4,1.9-1.4c0.6,0,2.5,1.5,5.7,4.6c3.2,3,4.7,4.9,4.7,5.7c0,0.4-0.5,0.5-1.4,0.5h-25.4V96h13.6
		l3.7-5.7c0.6-0.9,1.1-1.3,1.5-1.3c0.7,0,2.8,1.4,6.1,4.3c3.3,2.9,4.9,4.7,4.9,5.3c0,0.6-0.5,0.9-1.6,0.9h-28.3v38.6H133.7z"/>
</g>
</svg>
