<svg xmlns="http://www.w3.org/2000/svg" viewBox="0 0 952.39 427.82"><defs><style>.a{fill:#020202;stroke:#000;stroke-miterlimit:10;}</style></defs><title>大侠谷</title><path class="a" d="M646.9,690.87c-7.75-5.82-3.39-13.09-14.53-9.69s-13.08,1.94-14.53,4.85-9.69,7.27-9.69,7.27l-2.33,1.16-2.52,1.26v4.85c0,5.33,4.36,0,2.42,9.69s0,12.12,0,12.12l14.53,4.85v12.12l12.11-2.42s4.84-1,7.27-7.27,7.27-16,7.27-19.39,1.45-1,2.42-7.27S654.65,696.68,646.9,690.87Z" transform="translate(-31.38 -312.13)"/><path class="a" d="M613,584.23l-9.69-14.54h-9.69l-12.11,2.42L567,577l-21.8,2.42-17,12.12s-8.24,4.85,2.42-7.27,33.91-29.08,33.91-29.08l12.11-14.54,9.69-14.54,19.37-21.81L613,484.87l-4.84-7.27-7.27-7.27H596l-4.85,4.85-2.42,9.69-2.42,9.69-7.27,9.69s-6.78,5.82-7.27,9.69-4.85,9.69-4.85,9.69l-2.42,4.85-12.11,4.85-4.84,12.12-7.27,9.69-12.11,7.27-2.42-21.81,4.84-4.85s-1.45-5.82,0-9.69l7.27-19.39s-1.45-15.51-2.42-19.39l-2.42-9.69s0-2.91,2.42-9.69,4.84-17,4.84-17l-2.42-14.54L545.18,417V397.62l14.53-7.27s-1.45-1,9.69-4.85,8.72,3.39,9.69-7.27,2.42-14.54,2.42-14.54h-17l-9.69,12.12-7.27,2.42-2.42-9.69a98.13,98.13,0,0,1-2.42-19.39c0-9.21-6.78-11.63-4.85-14.54s4.85-12.12,4.85-12.12l-7.27-7.27s-4.85-5.82-4.85,0-2.42,19.39-2.42,19.39l2.42,12.12,2.42,2.42,2.42,9.69-2.42,14.54-4.84,12.12s-8.24,4.36-14.53,2.42a64.35,64.35,0,0,0-12.11-2.42h-4.84l-9.69-2.42-4.85,4.85s-6.78,11.63,0,17,22.28,5.33,24.22,4.85,24.22-4.85,24.22-4.85l-4.84,17s-2.91,7.76-2.42,9.69.49,9.69,0,14.54,1,8.72,0,12.12-4.84,19.39-4.84,19.39v9.69s-2.91,7.27-2.42,9.69.49,1,0,7.27-2.42,24.23-2.42,24.23l-3.82,15.3a41.67,41.67,0,0,1-1,4.09l1-4.09c.79-4,1.4-9.84-1-12.87-3.87-4.85-4.84-4.85-4.84-4.85l-7.27,4.85-9.69,4.85h-4.85s-1.45-4.85-2.42-7.27,0-7.27,0-7.27l9.69-7.27,4.84-4.85s-1.94-1.94,0-7.27,5.33-11.15,2.42-12.12-9.2-12.6-12.11-2.42-1,12.12-2.42,14.54-2.91,4.85-7.27,4.85H460.42l-9.69,9.69s3.87,14.54,4.84,17-2.42,9.69-2.42,9.69l2.42,4.85,4.84,7.27s1.45,7.27,4.85,7.27h9.69s5.33-4.36,9.69-4.85,2.42-2.91,12.11-7.27,9.69-7.27,9.69-7.27,4.36,9.69,2.42,19.39a56.08,56.08,0,0,0,0,19.39s-11.62,7.76-17,9.69c0,0-2.42,9.21-7.27,9.69a14.61,14.61,0,0,0-7.27,2.42v12.12l2.42,12.12s3.39,3.39,14.53,0,7.27,2.42,7.27,2.42l-7.27,17-2.42,17-7.27,12.12-33.9,7.27L431.36,686,412,690.87l-21.8,4.85-21.8-2.42a17,17,0,0,0-12.11,2.42c-6.3,3.88-19.38,12.12-19.38,12.12l-7.27,7.27,2.42,7.27s0,4.85,9.69,4.85,29.06-4.85,29.06-4.85h9.69l17,2.42,9.69-4.85,14.53-2.42,7.27-4.85h4.85s16.47,1,19.37,0,16-1,19.38,0,17,2.42,17,2.42l9.69-4.85,9.69-7.27,2.42-4.85,4.84-14.54V649.66l2.42-14.54s1-12.6,2.42-14.54,12.11-9.69,12.11-9.69l21.8-2.42L567,601.19l2.42,7.27s11.14,3.39,12.11,2.42,12.11-7.27,12.11-7.27a16.07,16.07,0,0,1,4.84-9.69c4.36-3.88,9.69-9.69,9.69-9.69Z" transform="translate(-31.38 -312.13)"/><path class="a" d="M348.52,608.73c7.67,3.23,19.38,17,19.38,17l7.27-2.42,2.42-4.85,7.27-9.69,9.69-2.42s-1.62-6.06-2.42-9.69a19,19,0,0,1,0-7.27l2.42-12.12-2.42-14.54s4,2.42,4.85-12.12-7.27-12.12-7.27-12.12l-7.27,9.69s-2,13.73-2.42,14.54-1.62,6.06-2.42,7.27l-4.84,7.27-2.42,9.69-7.27-2.42v-7.27l2.42-14.54s8.48-9.29,9.69-19.39,14.53-17,14.53-17l4.84-7.27s1.62-5.25,2.42-7.27-2.42-7.27-2.42-7.27l-9.69,2.42v-4.85l-7.27-2.42-2.42,4.85v9.17c.42.09,0,.52,0,.52v-.52a6.08,6.08,0,0,0-2.42.52c-3.63,1.21-7.27,7.27-7.27,7.27s-5.65,7.27-7.27,9.69-4.84,12.12-4.84,12.12-4.44,10.91-4.85,14.54S343.68,570,343.68,570L334,584.49c-1.62,2.42-2,8.48-2.42,12.12S340.85,605.5,348.52,608.73Z" transform="translate(-31.38 -312.13)"/><path class="a" d="M279.62,632.4C262.5,631.18,239.26,603,239.26,603H213.57s-33-18.35-40.36-33-4.89-22-11-25.68S147.52,526,147.52,526l11-18.35s7.34-8.56,11-11,11-11,11-11-8.56,1.22,3.67-11a245.79,245.79,0,0,0,22-25.69l3.67-7.34-36.69,22s-6.12,2.45-14.68,11-14.68,11-14.68,11l-11,3.67-3.67-11,11-18.35,3.67-7.34V434.25l7.34-22s3.67-17.12-7.34-18.35-29.35-3.67-29.35-3.67,4.89,17.12,3.67,29.35,1.22,17.12-3.67,25.69,0,29.35,0,29.35L110.83,493l-7.34,11L63.13,515l-3.67,7.34,3.67,7.34,7.34,11s-2.45,9.78,3.67,11,14.68,3.67,14.68,3.67v7.34c0,6.12-7.34,25.69-7.34,25.69s7.34,6.11,0,11a39.06,39.06,0,0,0-11,11l-18.35,11L33.77,606.71s-6.12,22,3.67,25.69,18.35,11,18.35,11l18.35,3.67,14.68,7.34,7.34-7.34s3.67-1.22,3.67-11,3.67-25.68,3.67-25.68l11-33a104,104,0,0,0,3.67-11c1.22-4.89-4.89-2.45,0-7.34l11-11h18.35s4.89,15.9,7.34,22,15.9,46.48,36.69,55,47.7,29.35,47.7,29.35-7.34,7.34,25.69,7.34,33-3.67,33-3.67S296.74,633.62,279.62,632.4Z" transform="translate(-31.38 -312.13)"/><path class="a" d="M810.79,436.13c3.63.61,5.45,6.06,7.27,7.27s7.27,9.69,7.27,9.69l17-2.42s7.27,2.42,9.69-4.85l4.84-14.54s-5.45-1.21-9.69,0S835,433.71,835,433.71l-12.11-4.85h-7.27S807.16,435.52,810.79,436.13Z" transform="translate(-31.38 -312.13)"/><path class="a" d="M982.74,528.22c-1.21-3.63-7.27-9.69-7.27-9.69s4.24-.61-2.42-2.42-14.53-4.85-14.53-4.85,5.45-6.06-12.11-2.42-21.8,4.85-21.8,4.85l-7.27,2.42s-9.08,4.24-14.53,4.85-7.87,0-12.11,2.42-12.11,7.27-12.11,7.27v4.85s-2.42,3.64,4.85,2.42,30.27-5.45,33.9-4.85,19.38,0,19.38,0l2.42,4.85L927,542.76l24.22-7.27h14.53l9.69,2.42h7.27S983.95,531.86,982.74,528.22Z" transform="translate(-31.38 -312.13)"/><path class="a" d="M847.11,632.44c-3-2.42-7.27-12.12-7.27-12.12s-1.82-10.9-2.42-12.12,0-7.27,0-7.27v-9.69L835,588.81s-8.48,1.82-9.69,4.85-4.84,9.69-4.84,9.69V613l2.42,4.85a49.34,49.34,0,0,1,2.42,9.69,49.29,49.29,0,0,0,2.42,9.69l2.42,17,9.69,2.42,7.27-4.85,7.27-2.42v-4.85S850.14,634.86,847.11,632.44Z" transform="translate(-31.38 -312.13)"/><path class="a" d="M827.74,562.15S833.19,556.7,835,550s9.08-14.54,9.69-17,0-1.21,4.84-7.27,7.27-7.27,7.27-7.27l-4.84-17s.6,1.21,0-2.42,9.69-14.54,9.69-14.54l4.85-9.69,17-14.54s-3,1.21,12.11-14.54,19.37-19.39,19.37-19.39l14.53-7.27a28.85,28.85,0,0,1,4.84-2.42c3-1.21,12.11-2.42,12.11-2.42l2.42-2.42v-7.27L944,402.2l-19.38-4.85-9.69,2.42-4.84,9.69,2.42,7.27L905.24,424l-14.53,7.27-9.69,17-17,14.54L849.54,474.9l-12.11,9.69L835,496.72l2.42,12.12,2.42,7.27-14.53,14.54-7.27,12.12-9.69,17L801.1,584l-7.27,9.69-12.11,9.69-7.27,12.12s-9.08,7.88-12.11,9.69-36.33,17-36.33,17l-12.11,7.27H677.59l-9.69,4.85,9.69,9.69,9.69,9.69,7.27,2.42h19.38s17.56-9.09,21.8-12.12,9.08-5.45,14.53-9.69,19.37-12.12,19.37-12.12,10.9-7.88,14.53-9.69,9.08-3,12.11-9.69,9.69-14.54,9.69-14.54l4.84-4.85,9.69-21.81Z" transform="translate(-31.38 -312.13)"/><path class="a" d="M941.57,557.31l-9.69,4.85-9.69,2.42-17,4.85s-13.32,3.63-17,2.42-17,0-17,0l-9.69,4.85-12.11,4.85,2.42,7.27h33.9s13.93,1.21,17,0,21.8-2.42,21.8-2.42l-14.53,9.69-7.27,7.27-7.27,4.85s-7.27,7.88-9.69,9.69-10.29,4.85-14.53,7.27a16.2,16.2,0,0,1-7.27,2.42v12.12l2.42,4.85h9.69s10.29,1.21,14.53-2.42a118.43,118.43,0,0,1,9.69-7.27l19.38,2.42H927l2.42-7.27,4.84-12.12v-7.27l-9.69,4.85-12.11,4.85,12.11-12.12,9.69-7.27,7.27-4.85s3.63,1.21,4.84-2.42a8.28,8.28,0,0,1,4.85-4.85V576.69l-2.42-7.27Z" transform="translate(-31.38 -312.13)"/></svg>